<?xml version="1.0" encoding="utf-8"?>
<!-- Svg Vector Icons : http://www.onlinewebfonts.com/icon -->
<!DOCTYPE svg PUBLIC "-//W3C//DTD SVG 1.1//EN" "http://www.w3.org/Graphics/SVG/1.1/DTD/svg11.dtd">
<svg version="1.1" xmlns="http://www.w3.org/2000/svg" xmlns:xlink="http://www.w3.org/1999/xlink" x="0px" y="0px" viewBox="0 0 1000 1000" enable-background="new 0 0 1000 1000" xml:space="preserve">
<metadata> Svg Vector Icons : http://www.onlinewebfonts.com/icon </metadata>
<g><g transform="translate(0.000000,512.000000) scale(0.100000,-0.100000)"><path d="M4622.6,5016.9c-693.8-70.9-1213.2-214.7-1782.4-494.5c-500.2-245.3-856.7-498.3-1263-891.2c-417.8-408.2-722.6-828-981.3-1353.1c-241.5-494.5-389.1-979.4-471.5-1552.4c-32.6-226.2-32.6-981.3,0-1207.5c136.1-950.6,504.1-1803.5,1082.9-2506.9c1353.1-1642.5,3595.5-2229,5571.5-1458.5C8043.7-3952.7,9071-2923.5,9569.3-1650.9C9772.5-1127.7,9876-625.6,9897-41c46,1326.3-446.6,2604.6-1374.2,3562.9c-421.7,435.1-833.7,736-1370.4,998.5c-483,237.7-927.6,377.6-1466.2,460C5492.8,5009.2,4789.4,5034.1,4622.6,5016.9z M5676.7,4359.5c1201.7-203.2,2221.3-860.5,2895.9-1872.5c343.1-511.7,569.2-1098.2,672.7-1742.2c46-293.2,46-931.5,0-1236.2c-189.7-1228.5-856.7-2276.9-1884-2963c-517.5-345-1113.5-575-1751.8-672.7c-304.7-46-943-46-1236.2,0c-962.1,155.3-1815,596.1-2464.7,1272.6C1284-2202.9,896.8-1417.1,747.3-501c-46,295.2-46,952.6,1.9,1245.8c155.2,956.4,553.9,1742.2,1217,2407.2c726.4,726.4,1650.2,1157.6,2685.1,1251.5C4858.4,4422.7,5452.5,4395.9,5676.7,4359.5z"/><path d="M5797.5,1582.3C5009.8,1141.5,4356.2,775.5,4346.6,764c-26.8-30.7-1613.8-2890.2-1606.1-2897.9c9.6-7.7,2871,1581.2,2901.7,1609.9c19.2,21.1,1615.7,2884.5,1615.7,2899.8c0,3.8-5.7,7.7-13.4,5.7C7234.9,2381.6,6585.2,2021.2,5797.5,1582.3z M5117.1,401.7c197.4-82.4,245.3-339.2,92-492.6c-124.6-124.6-300.9-124.6-425.5,0C4546,144.9,4808.5,532.1,5117.1,401.7z"/></g></g>
</svg>